{
  "accessors": [
    {
      "bufferView": 2,
      "componentType": 5126,
      "count": 604,
      "max": [
        1.0,
        1.0,
        1.0
      ],
      "min": [
        -1.0,
        -1.0,
        -1.0
      ],
      "type": "VEC3"
    },
    {
      "bufferView": 2,
      "byteOffset": 7248,
      "componentType": 5126,
      "count": 604,
      "max": [
        1.0,
        1.0,
        1.0
      ],
      "min": [
        -1.0,
        -1.0,
        -1.0
      ],
      "type": "VEC3"
    },
    {
      "bufferView": 1,
      "componentType": 5126,
      "count": 604,
      "max": [
        1.0,
        1.0
      ],
      "min": [
        0.0,
        0.0
      ],
      "type": "VEC2"
    },
    {
      "bufferView": 0,
      "componentType": 5125,
      "count": 2880,
      "type": "SCALAR"
    },
    {
      "bufferView": 2,
      "byteOffset": 14496,
      "componentType": 5126,
      "count": 850,
      "max": [
        2.630000114440918,
        2.630000114440918,
        0.009999999776482582
      ],
      "min": [
        -2.630000114440918,
        -2.630000114440918,
        -0.009999999776482582
      ],
      "type": "VEC3"
    },
    {
      "bufferView": 2,
      "byteOffset": 24696,
      "componentType": 5126,
      "count": 850,
      "max": [
        1.0,
        1.0,
        0.9999423623085022
      ],
      "min": [
        -1.0,
        -1.0,
        -0.9999423623085022
      ],
      "type": "VEC3"
    },
    {
      "bufferView": 1,
      "byteOffset": 4832,
      "componentType": 5126,
      "count": 850,
      "max": [
        1.0,
        1.0
      ],
      "min": [
        0.0,
        0.0
      ],
      "type": "VEC2"
    },
    {
      "bufferView": 0,
      "byteOffset": 11520,
      "componentType": 5125,
      "count": 3456,
      "type": "SCALAR"
    },
    {
      "bufferView": 2,
      "byteOffset": 34896,
      "componentType": 5126,
      "count": 850,
      "max": [
        2.630000114440918,
        2.630000114440918,
        0.009999999776482582
      ],
      "min": [
        -2.630000114440918,
        -2.630000114440918,
        -0.009999999776482582
      ],
      "type": "VEC3"
    },
    {
      "bufferView": 2,
      "byteOffset": 45096,
      "componentType": 5126,
      "count": 850,
      "max": [
        1.0,
        1.0,
        0.9999423623085022
      ],
      "min": [
        -1.0,
        -1.0,
        -0.9999423623085022
      ],
      "type": "VEC3"
    },
    {
      "bufferView": 1,
      "byteOffset": 11632,
      "componentType": 5126,
      "count": 850,
      "max": [
        1.0,
        1.0
      ],
      "min": [
        0.0,
        0.0
      ],
      "type": "VEC2"
    },
    {
      "bufferView": 0,
      "byteOffset": 25344,
      "componentType": 5125,
      "count": 3456,
      "type": "SCALAR"
    },
    {
      "bufferView": 2,
      "byteOffset": 55296,
      "componentType": 5126,
      "count": 850,
      "max": [
        2.630000114440918,
        2.630000114440918,
        0.009999999776482582
      ],
      "min": [
        -2.630000114440918,
        -2.630000114440918,
        -0.009999999776482582
      ],
      "type": "VEC3"
    },
    {
      "bufferView": 2,
      "byteOffset": 65496,
      "componentType": 5126,
      "count": 850,
      "max": [
        1.0,
        1.0,
        0.9999423623085022
      ],
      "min": [
        -1.0,
        -1.0,
        -0.9999423623085022
      ],
      "type": "VEC3"
    },
    {
      "bufferView": 1,
      "byteOffset": 18432,
      "componentType": 5126,
      "count": 850,
      "max": [
        1.0,
        1.0
      ],
      "min": [
        0.0,
        0.0
      ],
      "type": "VEC2"
    },
    {
      "bufferView": 0,
      "byteOffset": 39168,
      "componentType": 5125,
      "count": 3456,
      "type": "SCALAR"
    },
    {
      "bufferView": 2,
      "byteOffset": 75696,
      "componentType": 5126,
      "count": 604,
      "max": [
        -2.122270107269287,
        -1.079390048980713,
        0.1551000028848648
      ],
      "min": [
        -2.4589600563049316,
        -1.4163000583648682,
        -0.18185000121593475
      ],
      "type": "VEC3"
    },
    {
      "bufferView": 2,
      "byteOffset": 82944,
      "componentType": 5126,
      "count": 604,
      "max": [
        0.9991557002067566,
        0.9996159672737122,
        0.9997531175613403
      ],
      "min": [
        -0.9991557002067566,
        -0.9996159672737122,
        -0.9997531175613403
      ],
      "type": "VEC3"
    },
    {
      "bufferView": 1,
      "byteOffset": 25232,
      "componentType": 5126,
      "count": 604,
      "max": [
        1.0,
        1.0
      ],
      "min": [
        0.0,
        0.0
      ],
      "type": "VEC2"
    },
    {
      "bufferView": 0,
      "byteOffset": 52992,
      "componentType": 5125,
      "count": 2880,
      "type": "SCALAR"
    },
    {
      "bufferView": 2,
      "byteOffset": 90192,
      "componentType": 5126,
      "count": 604,
      "max": [
        0.24289999902248383,
        -2.447309970855713,
        0.16946999728679657
      ],
      "min": [
        -0.09363999962806702,
        -2.7831499576568604,
        -0.1655000001192093
      ],
      "type": "VEC3"
    },
    {
      "bufferView": 2,
      "byteOffset": 97440,
      "componentType": 5126,
      "count": 604,
      "max": [
        0.9985855221748352,
        0.996046245098114,
        0.9942130446434021
      ],
      "min": [
        -0.9985855221748352,
        -0.9960488677024841,
        -0.9942130446434021
      ],
      "type": "VEC3"
    },
    {
      "bufferView": 1,
      "byteOffset": 30064,
      "componentType": 5126,
      "count": 604,
      "max": [
        1.0,
        1.0
      ],
      "min": [
        0.0,
        0.0
      ],
      "type": "VEC2"
    },
    {
      "bufferView": 0,
      "byteOffset": 64512,
      "componentType": 5125,
      "count": 2880,
      "type": "SCALAR"
    },
    {
      "bufferView": 2,
      "byteOffset": 104688,
      "componentType": 5126,
      "count": 604,
      "max": [
        -2.4065799713134766,
        0.5375000238418579,
        0.15869000554084778
      ],
      "min": [
        -2.7431600093841553,
        0.20114000141620636,
        -0.17816999554634094
      ],
      "type": "VEC3"
    },
    {
      "bufferView": 2,
      "byteOffset": 111936,
      "componentType": 5126,
      "count": 604,
      "max": [
        0.9986770749092102,
        0.997833788394928,
        0.9994345307350159
      ],
      "min": [
        -0.9986770749092102,
        -0.997833788394928,
        -0.9994345307350159
      ],
      "type": "VEC3"
    },
    {
      "bufferView": 1,
      "byteOffset": 34896,
      "componentType": 5126,
      "count": 604,
      "max": [
        1.0,
        1.0
      ],
      "min": [
        0.0,
        0.0
      ],
      "type": "VEC2"
    },
    {
      "bufferView": 0,
      "byteOffset": 76032,
      "componentType": 5125,
      "count": 2880,
      "type": "SCALAR"
    },
    {
      "bufferView": 3,
      "componentType": 5126,
      "count": 35,
      "max": [
        1.4583300352096558
      ],
      "min": [
        0.041669998317956924
      ],
      "type": "SCALAR"
    },
    {
      "bufferView": 4,
      "componentType": 5126,
      "count": 35,
      "max": [
        0.17278000712394714,
        0.449429988861084,
        0.8664600253105164,
        0.8680800199508667
      ],
      "min": [
        -0.49588000774383545,
        -0.4959000051021576,
        -0.8682900071144104,
        0.01217000000178814
      ],
      "type": "VEC4"
    },
    {
      "bufferView": 3,
      "byteOffset": 140,
      "componentType": 5126,
      "count": 35,
      "max": [
        1.4583300352096558
      ],
      "min": [
        0.041669998317956924
      ],
      "type": "SCALAR"
    },
    {
      "bufferView": 4,
      "byteOffset": 560,
      "componentType": 5126,
      "count": 35,
      "max": [
        0.9975399971008301,
        0.6480000019073486,
        0.057270001620054245,
        0.058639999479055405
      ],
      "min": [
        -0.6760600209236145,
        -0.9971399903297424,
        -0.058649998158216476,
        -0.005669999867677689
      ],
      "type": "VEC4"
    },
    {
      "bufferView": 3,
      "byteOffset": 280,
      "componentType": 5126,
      "count": 35,
      "max": [
        1.4583300352096558
      ],
      "min": [
        0.041669998317956924
      ],
      "type": "SCALAR"
    },
    {
      "bufferView": 4,
      "byteOffset": 1120,
      "componentType": 5126,
      "count": 35,
      "max": [
        0.507319986820221,
        0.5073099732398987,
        0.8600299954414368,
        0.8607900142669678
      ],
      "min": [
        -0.3837999999523163,
        -0.2934400141239166,
        -0.8612300157546997,
        0.028939999639987946
      ],
      "type": "VEC4"
    }
  ],
  "animations": [
    {
      "channels": [
        {
          "sampler": 0,
          "target": {
            "node": 16,
            "path": "rotation"
          }
        },
        {
          "sampler": 1,
          "target": {
            "node": 14,
            "path": "rotation"
          }
        },
        {
          "sampler": 2,
          "target": {
            "node": 12,
            "path": "rotation"
          }
        }
      ],
      "name": "Take 01",
      "samplers": [
        {
          "input": 28,
          "interpolation": "LINEAR",
          "output": 29
        },
        {
          "input": 30,
          "interpolation": "LINEAR",
          "output": 31
        },
        {
          "input": 32,
          "interpolation": "LINEAR",
          "output": 33
        }
      ]
    }
  ],
  "asset": {
    "extras": {
      "author": "Master Ron (https://sketchfab.com/master_ron)",
      "license": "CC-BY-4.0 (http://creativecommons.org/licenses/by/4.0/)",
      "source": "https://sketchfab.com/3d-models/atom-b505bc59e6fb48569e4f032a0734f743",
      "title": "Atom"
    },
    "generator": "Sketchfab-12.68.0",
    "version": "2.0"
  },
  "bufferViews": [
    {
      "buffer": 0,
      "byteLength": 87552,
      "name": "floatBufferViews",
      "target": 34963
    },
    {
      "buffer": 0,
      "byteLength": 39728,
      "byteOffset": 87552,
      "byteStride": 8,
      "name": "floatBufferViews",
      "target": 34962
    },
    {
      "buffer": 0,
      "byteLength": 119184,
      "byteOffset": 127280,
      "byteStride": 12,
      "name": "floatBufferViews",
      "target": 34962
    },
    {
      "buffer": 0,
      "byteLength": 420,
      "byteOffset": 246464,
      "name": "floatBufferViews"
    },
    {
      "buffer": 0,
      "byteLength": 1680,
      "byteOffset": 246884,
      "byteStride": 16,
      "name": "floatBufferViews"
    }
  ],
  "buffers": [
    {
      "byteLength": 248564,
      "uri": "./atom.bin"
    }
  ],
  "extensionsRequired": [
    "KHR_materials_pbrSpecularGlossiness"
  ],
  "extensionsUsed": [
    "KHR_materials_pbrSpecularGlossiness"
  ],
  "materials": [
    {
      "doubleSided": true,
      "extensions": {
        "KHR_materials_pbrSpecularGlossiness": {
          "diffuseFactor": [
            0.0,
            0.0,
            0.0,
            1.0
          ],
          "glossinessFactor": 0.6263338414999999,
          "specularFactor": [
            0.2711979287,
            0.2711979287,
            0.2711979287
          ]
        }
      },
      "name": "electron"
    },
    {
      "doubleSided": true,
      "extensions": {
        "KHR_materials_pbrSpecularGlossiness": {
          "diffuseFactor": [
            0.0,
            0.0,
            0.0,
            1.0
          ],
          "glossinessFactor": 0.0,
          "specularFactor": [
            0.2903871412,
            0.2903871412,
            0.2903871412
          ]
        }
      },
      "name": "electron_shell"
    },
    {
      "doubleSided": true,
      "extensions": {
        "KHR_materials_pbrSpecularGlossiness": {
          "diffuseFactor": [
            0.0,
            0.0,
            0.0,
            1.0
          ],
          "glossinessFactor": 0.6751143292999999,
          "specularFactor": [
            0.0631596481,
            0.0631596481,
            0.0631596481
          ]
        }
      },
      "name": "core"
    }
  ],
  "meshes": [
    {
      "name": "core_0",
      "primitives": [
        {
          "attributes": {
            "NORMAL": 1,
            "POSITION": 0,
            "TEXCOORD_0": 2
          },
          "indices": 3,
          "material": 2,
          "mode": 4
        }
      ]
    },
    {
      "name": "electron shell_0",
      "primitives": [
        {
          "attributes": {
            "NORMAL": 5,
            "POSITION": 4,
            "TEXCOORD_0": 6
          },
          "indices": 7,
          "material": 1,
          "mode": 4
        }
      ]
    },
    {
      "name": "electron shell2_0",
      "primitives": [
        {
          "attributes": {
            "NORMAL": 9,
            "POSITION": 8,
            "TEXCOORD_0": 10
          },
          "indices": 11,
          "material": 1,
          "mode": 4
        }
      ]
    },
    {
      "name": "electron shell3_0",
      "primitives": [
        {
          "attributes": {
            "NORMAL": 13,
            "POSITION": 12,
            "TEXCOORD_0": 14
          },
          "indices": 15,
          "material": 1,
          "mode": 4
        }
      ]
    },
    {
      "name": "electron 2_0",
      "primitives": [
        {
          "attributes": {
            "NORMAL": 17,
            "POSITION": 16,
            "TEXCOORD_0": 18
          },
          "indices": 19,
          "material": 0,
          "mode": 4
        }
      ]
    },
    {
      "name": "electron  3_0",
      "primitives": [
        {
          "attributes": {
            "NORMAL": 21,
            "POSITION": 20,
            "TEXCOORD_0": 22
          },
          "indices": 23,
          "material": 0,
          "mode": 4
        }
      ]
    },
    {
      "name": "electron 1_0",
      "primitives": [
        {
          "attributes": {
            "NORMAL": 25,
            "POSITION": 24,
            "TEXCOORD_0": 26
          },
          "indices": 27,
          "material": 0,
          "mode": 4
        }
      ]
    }
  ],
  "nodes": [
    {
      "children": [
        1
      ],
      "matrix": [
        1.0,
        0.0,
        0.0,
        0.0,
        0.0,
        2.220446049250313e-16,
        -1.0,
        0.0,
        0.0,
        1.0,
        2.220446049250313e-16,
        0.0,
        -0.003100857138633728,
        0.010910117067396658,
        -0.07667309790849686,
        1.0
      ],
      "name": "Sketchfab_model"
    },
    {
      "children": [
        2,
        4,
        6,
        8,
        10,
        12,
        14,
        16
      ],
      "name": "Root"
    },
    {
      "children": [
        3
      ],
      "matrix": [
        -0.28487000000000007,
        0.9551700000000001,
        -0.08061000000000001,
        0.0,
        -0.8213900000000001,
        -0.19988000000000003,
        0.5342,
        0.0,
        0.49414,
        0.21839000000000003,
        0.84151,
        0.0,
        3.67388,
        4.23427,
        6.15612,
        1.0
      ],
      "name": "Lamp"
    },
    {
      "name": "Lamp"
    },
    {
      "children": [
        5
      ],
      "matrix": [
        0.5035799999999999,
        -0.029390000000000006,
        -0.019540000000000002,
        0.0,
        0.032220000000000006,
        0.26881000000000005,
        0.42607000000000006,
        0.0,
        -0.014400000000000001,
        -0.42628000000000005,
        0.27003,
        0.0,
        0.0005000000000000001,
        -0.0017900000000000006,
        0.003960000000000001,
        1.0
      ],
      "name": "core"
    },
    {
      "mesh": 0,
      "name": "core_0"
    },
    {
      "children": [
        7
      ],
      "matrix": [
        -0.7339600000000001,
        -0.4607,
        0.49906000000000006,
        0.0,
        -0.03853000000000001,
        -0.70536,
        -0.70781,
        0.0,
        0.6781000000000001,
        -0.53873,
        0.49995000000000006,
        0.0,
        -0.0,
        -0.0,
        0.0,
        1.0
      ],
      "name": "electron shell"
    },
    {
      "mesh": 1,
      "name": "electron shell_0"
    },
    {
      "children": [
        9
      ],
      "matrix": [
        0.8502700000000001,
        0.48376,
        -0.20742000000000002,
        0.0,
        -0.41361000000000003,
        0.37035000000000007,
        -0.8317300000000001,
        0.0,
        -0.32554000000000005,
        0.79298,
        0.51498,
        0.0,
        -0.0,
        -0.0,
        0.0,
        1.0
      ],
      "name": "electron shell2"
    },
    {
      "mesh": 2,
      "name": "electron shell2_0"
    },
    {
      "children": [
        11
      ],
      "matrix": [
        0.99415,
        0.04195000000000001,
        -0.09951000000000003,
        0.0,
        0.047990000000000005,
        -0.9971,
        0.05914000000000001,
        0.0,
        -0.09674000000000003,
        -0.06357000000000002,
        -0.9932799999999999,
        0.0,
        -0.0,
        0.0,
        -0.0,
        1.0
      ],
      "name": "electron shell3"
    },
    {
      "mesh": 3,
      "name": "electron shell3_0"
    },
    {
      "children": [
        13
      ],
      "name": "electron 2",
      "rotation": [
        -0.3504003882408142,
        0.36697039008140564,
        -0.8545408844947815,
        0.11096011847257614
      ],
      "translation": [
        0.13662999868392944,
        -0.010339999571442604,
        -0.07728999853134155
      ]
    },
    {
      "mesh": 4,
      "name": "electron 2_0"
    },
    {
      "children": [
        15
      ],
      "name": "electron  3",
      "rotation": [
        0.997539758682251,
        0.03839999437332153,
        -0.049339987337589264,
        0.03170999139547348
      ],
      "translation": [
        0.13044999539852142,
        -0.010010000318288803,
        -0.09911999851465225
      ]
    },
    {
      "mesh": 5,
      "name": "electron  3_0"
    },
    {
      "children": [
        17
      ],
      "name": "electron 1",
      "rotation": [
        -0.49530041217803955,
        -0.02442002110183239,
        0.27369022369384766,
        0.8241207003593445
      ],
      "translation": [
        0.13478000462055206,
        -0.006949999835342169,
        -0.08262000232934952
      ]
    },
    {
      "mesh": 6,
      "name": "electron 1_0"
    }
  ],
  "scene": 0,
  "scenes": [
    {
      "name": "Sketchfab_Scene",
      "nodes": [
        0
      ]
    }
  ]
}
