<svg id="visual" viewBox="0 0 960 540" width="960" height="540" xmlns="http://www.w3.org/2000/svg" xmlns:xlink="http://www.w3.org/1999/xlink" version="1.1"><rect x="0" y="0" width="960" height="540" fill="#001220"></rect><path d="M524 540L539.7 531C555.3 522 586.7 504 591.5 486C596.3 468 574.7 450 557.8 432C541 414 529 396 526 378C523 360 529 342 541.8 324C554.7 306 574.3 288 582.3 270C590.3 252 586.7 234 581.5 216C576.3 198 569.7 180 561.3 162C553 144 543 126 546.3 108C549.7 90 566.3 72 566.2 54C566 36 549 18 540.5 9L532 0L960 0L960 9C960 18 960 36 960 54C960 72 960 90 960 108C960 126 960 144 960 162C960 180 960 198 960 216C960 234 960 252 960 270C960 288 960 306 960 324C960 342 960 360 960 378C960 396 960 414 960 432C960 450 960 468 960 486C960 504 960 522 960 531L960 540Z" fill="#fe2a77"></path><path d="M624 540L613.5 531C603 522 582 504 577 486C572 468 583 450 585.2 432C587.3 414 580.7 396 581.2 378C581.7 360 589.3 342 596.5 324C603.7 306 610.3 288 615.2 270C620 252 623 234 619.3 216C615.7 198 605.3 180 600 162C594.7 144 594.3 126 603.5 108C612.7 90 631.3 72 640.8 54C650.3 36 650.7 18 650.8 9L651 0L960 0L960 9C960 18 960 36 960 54C960 72 960 90 960 108C960 126 960 144 960 162C960 180 960 198 960 216C960 234 960 252 960 270C960 288 960 306 960 324C960 342 960 360 960 378C960 396 960 414 960 432C960 450 960 468 960 486C960 504 960 522 960 531L960 540Z" fill="#ea1c79"></path><path d="M667 540L660.3 531C653.7 522 640.3 504 640.3 486C640.3 468 653.7 450 658.2 432C662.7 414 658.3 396 656.3 378C654.3 360 654.7 342 652.2 324C649.7 306 644.3 288 638 270C631.7 252 624.3 234 622.2 216C620 198 623 180 625 162C627 144 628 126 635 108C642 90 655 72 658.2 54C661.3 36 654.7 18 651.3 9L648 0L960 0L960 9C960 18 960 36 960 54C960 72 960 90 960 108C960 126 960 144 960 162C960 180 960 198 960 216C960 234 960 252 960 270C960 288 960 306 960 324C960 342 960 360 960 378C960 396 960 414 960 432C960 450 960 468 960 486C960 504 960 522 960 531L960 540Z" fill="#d61079"></path><path d="M690 540L679.3 531C668.7 522 647.3 504 649 486C650.7 468 675.3 450 687.8 432C700.3 414 700.7 396 700.3 378C700 360 699 342 693.2 324C687.3 306 676.7 288 672.5 270C668.3 252 670.7 234 672 216C673.3 198 673.7 180 677.8 162C682 144 690 126 685 108C680 90 662 72 657.7 54C653.3 36 662.7 18 667.3 9L672 0L960 0L960 9C960 18 960 36 960 54C960 72 960 90 960 108C960 126 960 144 960 162C960 180 960 198 960 216C960 234 960 252 960 270C960 288 960 306 960 324C960 342 960 360 960 378C960 396 960 414 960 432C960 450 960 468 960 486C960 504 960 522 960 531L960 540Z" fill="#c10579"></path><path d="M710 540L702 531C694 522 678 504 679.7 486C681.3 468 700.7 450 706.2 432C711.7 414 703.3 396 700.8 378C698.3 360 701.7 342 698.7 324C695.7 306 686.3 288 683.2 270C680 252 683 234 688.3 216C693.7 198 701.3 180 702.8 162C704.3 144 699.7 126 698.5 108C697.3 90 699.7 72 697.8 54C696 36 690 18 687 9L684 0L960 0L960 9C960 18 960 36 960 54C960 72 960 90 960 108C960 126 960 144 960 162C960 180 960 198 960 216C960 234 960 252 960 270C960 288 960 306 960 324C960 342 960 360 960 378C960 396 960 414 960 432C960 450 960 468 960 486C960 504 960 522 960 531L960 540Z" fill="#ac0077"></path><path d="M742 540L739.7 531C737.3 522 732.7 504 726.8 486C721 468 714 450 709.8 432C705.7 414 704.3 396 709.5 378C714.7 360 726.3 342 724 324C721.7 306 705.3 288 699.8 270C694.3 252 699.7 234 711.2 216C722.7 198 740.3 180 749 162C757.7 144 757.3 126 747.2 108C737 90 717 72 715.7 54C714.3 36 731.7 18 740.3 9L749 0L960 0L960 9C960 18 960 36 960 54C960 72 960 90 960 108C960 126 960 144 960 162C960 180 960 198 960 216C960 234 960 252 960 270C960 288 960 306 960 324C960 342 960 360 960 378C960 396 960 414 960 432C960 450 960 468 960 486C960 504 960 522 960 531L960 540Z" fill="#960074"></path><path d="M732 540L740 531C748 522 764 504 770.7 486C777.3 468 774.7 450 765.3 432C756 414 740 396 734.5 378C729 360 734 342 742.2 324C750.3 306 761.7 288 765.2 270C768.7 252 764.3 234 757.8 216C751.3 198 742.7 180 745 162C747.3 144 760.7 126 767.8 108C775 90 776 72 775.5 54C775 36 773 18 772 9L771 0L960 0L960 9C960 18 960 36 960 54C960 72 960 90 960 108C960 126 960 144 960 162C960 180 960 198 960 216C960 234 960 252 960 270C960 288 960 306 960 324C960 342 960 360 960 378C960 396 960 414 960 432C960 450 960 468 960 486C960 504 960 522 960 531L960 540Z" fill="#800070"></path><path d="M772 540L777.2 531C782.3 522 792.7 504 799.2 486C805.7 468 808.3 450 809.7 432C811 414 811 396 808 378C805 360 799 342 791.3 324C783.7 306 774.3 288 776.7 270C779 252 793 234 796.5 216C800 198 793 180 791 162C789 144 792 126 789.5 108C787 90 779 72 780.8 54C782.7 36 794.3 18 800.2 9L806 0L960 0L960 9C960 18 960 36 960 54C960 72 960 90 960 108C960 126 960 144 960 162C960 180 960 198 960 216C960 234 960 252 960 270C960 288 960 306 960 324C960 342 960 360 960 378C960 396 960 414 960 432C960 450 960 468 960 486C960 504 960 522 960 531L960 540Z" fill="#6a006a"></path><path d="M804 540L809.2 531C814.3 522 824.7 504 829.5 486C834.3 468 833.7 450 831.3 432C829 414 825 396 820.8 378C816.7 360 812.3 342 808.8 324C805.3 306 802.7 288 802.5 270C802.3 252 804.7 234 804.7 216C804.7 198 802.3 180 801.3 162C800.3 144 800.7 126 803.5 108C806.3 90 811.7 72 814.8 54C818 36 819 18 819.5 9L820 0L960 0L960 9C960 18 960 36 960 54C960 72 960 90 960 108C960 126 960 144 960 162C960 180 960 198 960 216C960 234 960 252 960 270C960 288 960 306 960 324C960 342 960 360 960 378C960 396 960 414 960 432C960 450 960 468 960 486C960 504 960 522 960 531L960 540Z" fill="#540164"></path><path d="M834 540L836.8 531C839.7 522 845.3 504 849.7 486C854 468 857 450 853.8 432C850.7 414 841.3 396 841.8 378C842.3 360 852.7 342 855.2 324C857.7 306 852.3 288 851.5 270C850.7 252 854.3 234 851.8 216C849.3 198 840.7 180 837.2 162C833.7 144 835.3 126 835.8 108C836.3 90 835.7 72 838.2 54C840.7 36 846.3 18 849.2 9L852 0L960 0L960 9C960 18 960 36 960 54C960 72 960 90 960 108C960 126 960 144 960 162C960 180 960 198 960 216C960 234 960 252 960 270C960 288 960 306 960 324C960 342 960 360 960 378C960 396 960 414 960 432C960 450 960 468 960 486C960 504 960 522 960 531L960 540Z" fill="#3d025c"></path><path d="M892 540L890.7 531C889.3 522 886.7 504 883.5 486C880.3 468 876.7 450 877.3 432C878 414 883 396 885 378C887 360 886 342 884.7 324C883.3 306 881.7 288 878.7 270C875.7 252 871.3 234 868.8 216C866.3 198 865.7 180 865.5 162C865.3 144 865.7 126 870.2 108C874.7 90 883.3 72 883.7 54C884 36 876 18 872 9L868 0L960 0L960 9C960 18 960 36 960 54C960 72 960 90 960 108C960 126 960 144 960 162C960 180 960 198 960 216C960 234 960 252 960 270C960 288 960 306 960 324C960 342 960 360 960 378C960 396 960 414 960 432C960 450 960 468 960 486C960 504 960 522 960 531L960 540Z" fill="#250353"></path><path d="M905 540L905.5 531C906 522 907 504 909.3 486C911.7 468 915.3 450 916.8 432C918.3 414 917.7 396 916.3 378C915 360 913 342 911.2 324C909.3 306 907.7 288 906.8 270C906 252 906 234 908.2 216C910.3 198 914.7 180 913.5 162C912.3 144 905.7 126 904.7 108C903.7 90 908.3 72 909.2 54C910 36 907 18 905.5 9L904 0L960 0L960 9C960 18 960 36 960 54C960 72 960 90 960 108C960 126 960 144 960 162C960 180 960 198 960 216C960 234 960 252 960 270C960 288 960 306 960 324C960 342 960 360 960 378C960 396 960 414 960 432C960 450 960 468 960 486C960 504 960 522 960 531L960 540Z" fill="#06014a"></path></svg>