<?xml version="1.0" encoding="UTF-8"?>
<svg version="1.1" xmlns="http://www.w3.org/2000/svg" width="832" height="782">
<path d="M0 0 C13.80629298 11.91984754 19.9218927 29.51437959 21.6015625 47.24609375 C22.63306706 65.0298162 21.95981216 82.73391684 18.6015625 100.24609375 C18.40820312 101.26525879 18.21484375 102.28442383 18.015625 103.33447266 C10.31080867 142.8276014 10.31080867 142.8276014 2.6015625 158.24609375 C3.86871094 157.96894531 5.13585937 157.69179687 6.44140625 157.40625 C8.14057465 157.04013084 9.83979628 156.67425863 11.5390625 156.30859375 C12.36986328 156.12619141 13.20066406 155.94378906 14.05664062 155.75585938 C35.71350637 151.12112157 60.85656024 151.18967186 80.37890625 162.9140625 C82.86545876 164.60790955 85.24008549 166.38287164 87.6015625 168.24609375 C88.22546875 168.70628906 88.849375 169.16648438 89.4921875 169.640625 C105.1664895 181.89058625 112.43774318 203.42673529 114.89086914 222.49487305 C121.04510686 280.70650587 99.56295792 339.70049862 74.6015625 391.24609375 C73.82425781 392.86427002 73.82425781 392.86427002 73.03125 394.51513672 C65.7745689 409.56694109 57.87905919 424.11496463 49.28173828 438.44140625 C47.66540891 441.13951607 46.06660276 443.84721536 44.47265625 446.55859375 C26.70740484 476.66266159 6.32166683 505.59835876 -15.97021484 532.51806641 C-18.00306019 534.97763553 -20.01141373 537.4569819 -22.0234375 539.93359375 C-29.51499296 549.06863487 -37.13087721 558.05367798 -45.125 566.75390625 C-47.12928593 568.95104443 -49.08457166 571.17889456 -51.0234375 573.43359375 C-54.01402932 576.88049653 -57.20690805 580.07265204 -60.45703125 583.2734375 C-62.21632989 585.06105483 -63.84353286 586.89335501 -65.4609375 588.80859375 C-73.14249877 597.72911651 -81.72072437 606.18216369 -90.7109375 613.77734375 C-92.52784183 615.35872344 -94.2105503 617.02806571 -95.8984375 618.74609375 C-99.56140376 622.45822734 -103.44078351 625.85290257 -107.3984375 629.24609375 C-108.4417513 630.15324914 -109.48469129 631.06083456 -110.52734375 631.96875 C-118.62150768 638.99361224 -126.89481677 645.72442584 -135.3984375 652.24609375 C-136.11708984 652.80135742 -136.83574219 653.35662109 -137.57617188 653.92871094 C-156.89688685 668.82414784 -177.01070071 682.48924732 -198.3984375 694.24609375 C-199.20780762 694.69791016 -200.01717773 695.14972656 -200.85107422 695.61523438 C-220.91030807 706.76575115 -242.13827017 715.56668508 -264.3984375 721.24609375 C-265.06584961 721.42253418 -265.73326172 721.59897461 -266.42089844 721.78076172 C-289.0040686 727.52041378 -315.99615431 727.10082762 -336.7265625 715.8671875 C-355.24874954 704.62931086 -364.80906054 687.62716682 -370.3984375 667.24609375 C-372.99529547 656.51875901 -373.439302 645.21909729 -374.3984375 634.24609375 C-375.11902344 634.73335937 -375.83960938 635.220625 -376.58203125 635.72265625 C-414.07509274 660.47797896 -464.49292961 688.41778783 -511.0859375 680.05859375 C-526.07784542 676.66626422 -538.3163337 670.1769428 -546.83984375 656.97265625 C-567.11607987 621.50194745 -558.87725615 576.13996677 -548.796875 538.65234375 C-540.38862838 508.03776607 -528.16185987 478.82418916 -514.73779297 450.11279297 C-513.45162659 447.3599374 -512.17664049 444.60211466 -510.90234375 441.84375 C-505.39844415 430.01652531 -499.37189829 418.54024685 -493.01660156 407.14990234 C-491.34016898 404.14153042 -489.67738121 401.12587535 -488.015625 398.109375 C-480.17268936 383.92522507 -471.97131054 370.00077085 -463.3984375 356.24609375 C-462.83688965 355.3432666 -462.2753418 354.44043945 -461.69677734 353.51025391 C-441.61548085 321.3234167 -419.73746744 290.15630688 -396.3984375 260.24609375 C-395.97530273 259.70210938 -395.55216797 259.158125 -395.11621094 258.59765625 C-388.15362779 249.65091728 -381.04282304 240.82958177 -373.87060547 232.05029297 C-372.57572239 230.46336329 -371.28553272 228.87260638 -369.99609375 227.28125 C-364.93274009 221.04590852 -359.74013186 214.93087261 -354.49609375 208.84765625 C-352.47099631 206.49826399 -350.4581902 204.13934235 -348.45703125 201.76953125 C-342.06286754 194.21443986 -335.44003869 186.92182544 -328.65234375 179.71875 C-325.9354828 176.83242848 -323.27943303 173.89868395 -320.6484375 170.93359375 C-316.90818789 166.74145524 -312.97906226 162.78077575 -308.953125 158.86328125 C-306.93103125 156.79171731 -305.03880133 154.69859868 -303.15234375 152.5078125 C-299.12207739 147.8616901 -294.81953491 143.52012231 -290.4609375 139.18359375 C-289.32108398 138.03793945 -289.32108398 138.03793945 -288.15820312 136.86914062 C-283.96010273 132.67821034 -279.66837403 128.67307459 -275.17358398 124.80297852 C-272.80251164 122.72343948 -270.59796449 120.50506741 -268.3984375 118.24609375 C-264.9080231 114.71854728 -261.35199436 111.37224901 -257.58203125 108.1484375 C-255.39044996 106.23913502 -253.25497616 104.27587608 -251.12475586 102.29858398 C-245.96971028 97.51648792 -240.70389918 92.95298446 -235.22265625 88.54296875 C-232.73572287 86.52040052 -230.29476974 84.45361772 -227.86499023 82.36303711 C-220.27061989 75.84042942 -212.3581494 69.78067018 -204.37207031 63.74804688 C-202.64639047 62.43478829 -200.93601473 61.10587114 -199.234375 59.76171875 C-154.38185354 24.49509237 -57.13519135 -43.85729477 0 0 Z M-54.359375 89.52734375 C-101.21252649 95.10254713 -143.5607637 125.55785487 -179.3984375 154.24609375 C-180.254375 154.91898437 -181.1103125 155.591875 -181.9921875 156.28515625 C-191.95278404 164.14367884 -201.54386029 172.47310614 -210.921875 181.015625 C-212.99951273 182.88680977 -215.09720732 184.72795956 -217.20703125 186.5625 C-228.39556563 196.3388008 -239.00551508 206.75867414 -249.5234375 217.24609375 C-250.39959717 218.11766113 -251.27575684 218.98922852 -252.1784668 219.88720703 C-256.59863861 224.31799915 -260.85842603 228.81937576 -264.93701172 233.56640625 C-266.66907969 235.55715594 -268.50049885 237.41360126 -270.3984375 239.24609375 C-273.61278481 242.41725405 -276.61594713 245.70192128 -279.55859375 249.125 C-281.59352569 251.47100433 -283.68134717 253.76345825 -285.7734375 256.05859375 C-289.64438704 260.34731863 -293.31215644 264.7671808 -296.9453125 269.2578125 C-299.73296626 272.65360091 -302.59066072 275.98271037 -305.4609375 279.30859375 C-310.23686892 284.85761561 -314.88599972 290.47932449 -319.3984375 296.24609375 C-319.88505859 296.86403809 -320.37167969 297.48198242 -320.87304688 298.11865234 C-329.37022105 308.91270305 -337.63921011 319.85530103 -345.7265625 330.95947266 C-347.2830908 333.08833423 -348.85390243 335.20568732 -350.4296875 337.3203125 C-398.86096567 402.76183042 -451.24012125 486.61394918 -461.08496094 601.8125 C-459.13299814 613.61413694 -454.27505809 625.9300785 -444.3984375 633.24609375 C-427.88133146 643.21172198 -411.2474744 642.80838968 -392.98828125 638.45703125 C-381.2866592 636.00297416 -381.2866592 636.00297416 -372.3984375 629.24609375 C-372.00659575 627.20912843 -372.00659575 627.20912843 -371.90625 624.94921875 C-371.84356934 624.08554687 -371.78088867 623.221875 -371.71630859 622.33203125 C-371.65266113 621.39617188 -371.58901367 620.4603125 -371.5234375 619.49609375 C-364.04940378 528.19006256 -312.22724027 438.63619928 -257.3984375 367.24609375 C-256.47093715 366.02505624 -255.54384221 364.80371065 -254.6171875 363.58203125 C-249.64748453 357.05464648 -244.56166958 350.6212087 -239.3984375 344.24609375 C-238.71394531 343.39789063 -238.02945313 342.5496875 -237.32421875 341.67578125 C-228.96098247 331.37563747 -220.33583963 321.30084214 -211.4140625 311.48046875 C-209.52399092 309.38527312 -207.67631263 307.25990809 -205.8359375 305.12109375 C-202.82248106 301.65527087 -199.61081902 298.440071 -196.33984375 295.21875 C-194.58054511 293.43113267 -192.95334214 291.59883249 -191.3359375 289.68359375 C-183.8096708 280.94341307 -175.42332805 272.60654069 -166.60546875 265.171875 C-164.02833706 262.92315655 -161.54919351 260.58318519 -159.06201172 258.23583984 C-153.24417452 252.74576812 -147.37711832 247.4351696 -141.12109375 242.44140625 C-138.64627967 240.44593205 -136.22899656 238.39547843 -133.82177734 236.31933594 C-125.97014845 229.56488829 -117.76947547 223.34036641 -109.3984375 217.24609375 C-108.71765137 216.74964355 -108.03686523 216.25319336 -107.33544922 215.74169922 C-74.97681292 192.25472874 -40.37734807 172.96597582 -2.3984375 160.24609375 C-0.63831616 140.1236254 -0.85875104 120.1775598 -13.3984375 103.24609375 C-22.23105816 93.68047553 -32.84907005 90.4705739 -45.5859375 88.9921875 C-48.54147929 88.89664197 -51.41816655 89.24796775 -54.359375 89.52734375 Z M-74.3984375 309.24609375 C-75.28474854 309.88804687 -75.28474854 309.88804687 -76.18896484 310.54296875 C-83.48377226 315.83422735 -90.4923172 321.45988485 -97.3984375 327.24609375 C-97.91599609 327.67728516 -98.43355469 328.10847656 -98.96679688 328.55273438 C-115.68527242 342.51475876 -132.4212264 357.46603724 -146.53515625 374.1015625 C-148.53902366 376.40790046 -150.61097469 378.63833265 -152.69677734 380.87036133 C-157.66282714 386.18783335 -162.44920393 391.58270252 -167.00390625 397.26171875 C-168.78084435 399.47636917 -170.57339552 401.67101756 -172.38671875 403.85546875 C-179.93388843 412.97945372 -186.99288911 422.3714875 -193.82958984 432.03759766 C-195.32456754 434.14210563 -196.8368705 436.23281033 -198.35546875 438.3203125 C-232.11809385 484.98635587 -274.84248716 553.06678149 -266.8984375 613.01953125 C-264.70119415 624.53009018 -260.77640335 633.86671079 -251.3984375 641.24609375 C-241.69404866 647.65213432 -228.44556377 648.17117726 -217.3203125 646.1953125 C-202.88020276 642.91037654 -189.32922804 637.37807761 -176.3984375 630.24609375 C-175.78919434 629.91464355 -175.17995117 629.58319336 -174.55224609 629.24169922 C-153.9423989 617.98246324 -134.88802459 603.88236626 -117.3984375 588.24609375 C-116.49738281 587.44429687 -115.59632813 586.6425 -114.66796875 585.81640625 C-113.07467691 584.38861914 -111.48585527 582.95581396 -109.90332031 581.51611328 C-108.32317549 580.08412628 -106.73638044 578.65941198 -105.14038086 577.24511719 C-99.10693638 571.88849133 -93.32102785 566.32464552 -87.62915039 560.60717773 C-86.20506258 559.17769658 -84.77565706 557.75368864 -83.34570312 556.33007812 C-78.15238443 551.12952136 -73.17496224 545.82955621 -68.3984375 540.24609375 C-66.94398233 538.63841002 -65.48622855 537.0336966 -64.0234375 535.43359375 C-60.18037452 531.16999358 -56.50521016 526.80057102 -52.8984375 522.3359375 C-51.07840178 520.0864871 -49.24624868 517.85135583 -47.3984375 515.625 C-39.89835128 506.55358687 -32.86472719 497.22771858 -26.07519531 487.61425781 C-24.35811423 485.18914329 -22.62516585 482.77593084 -20.890625 480.36328125 C-12.76684119 468.99668395 -5.40513978 457.32829779 1.6015625 445.24609375 C2.61051646 443.52855146 3.61963234 441.81110429 4.62890625 440.09375 C27.2168456 401.40423601 55.93609777 347.91965769 45.3515625 301.37109375 C42.25923719 291.34620657 37.28772807 282.71983542 28.0078125 277.3125 C-5.78260133 262.33720296 -48.28357429 290.09905435 -74.3984375 309.24609375 Z " fill="#FF2A77" transform="translate(653.3984375,57.75390625)"/>
<path d="M0 0 C1.32118835 0.00131424 1.32118835 0.00131424 2.66906738 0.00265503 C25.74053542 0.0782623 47.76641684 3.47630391 68.4375 14.375 C66.05665559 16.75584441 63.78263281 17.32518201 60.62548828 18.32666016 C18.25737752 31.85367853 -20.75612059 58.64443282 -54.97265625 86.47265625 C-57.35300138 88.40810123 -59.75412521 90.31018171 -62.18359375 92.18359375 C-69.04220132 97.47366596 -75.5652492 102.96456283 -81.890625 108.8828125 C-84.12365258 110.96566571 -86.38181447 112.99866496 -88.6875 115 C-103.49173839 127.86666936 -117.7090953 141.34718546 -131.55419922 155.23632812 C-133.585762 157.27332421 -135.62271836 159.30481951 -137.66015625 161.3359375 C-138.98209207 162.65853317 -140.30371817 163.98143849 -141.625 165.3046875 C-142.21990234 165.89756561 -142.81480469 166.49044373 -143.42773438 167.10128784 C-147.0838702 170.77758239 -150.55068328 174.57475231 -153.93334961 178.50430298 C-156.72334027 181.70795272 -159.64923114 184.78383699 -162.5625 187.875 C-167.32917569 192.96115631 -172.03432601 198.07420021 -176.5625 203.375 C-177.84447266 204.85613281 -177.84447266 204.85613281 -179.15234375 206.3671875 C-187.11007846 215.57676081 -194.87396277 224.93998043 -202.5625 234.375 C-203.07280762 234.99987305 -203.58311523 235.62474609 -204.10888672 236.26855469 C-212.28100453 246.29711469 -220.05466765 256.60650538 -227.77685547 266.98388672 C-229.40545772 269.16470849 -231.04488649 271.33659721 -232.69140625 273.50390625 C-289.01805089 347.72647923 -341.82880846 434.75231954 -363.5546875 531.828125 C-364.39393681 535.73593051 -365.41412563 539.54708543 -366.5625 543.375 C-378.8098584 528.66191236 -385.46979607 509.99393262 -389.9375 491.625 C-390.1761377 490.64490967 -390.41477539 489.66481934 -390.66064453 488.6550293 C-394.26127188 472.91562754 -394.93765539 457.51212439 -394.875 441.4375 C-394.87284485 440.44266602 -394.8706897 439.44783203 -394.86846924 438.42285156 C-394.81561435 423.20553178 -394.30975432 408.37961183 -391.5625 393.375 C-391.35850586 392.24320312 -391.15451172 391.11140625 -390.94433594 389.9453125 C-384.2192988 353.53026425 -372.71149136 319.11832624 -357.5625 285.375 C-357.1603125 284.47668457 -356.758125 283.57836914 -356.34375 282.65283203 C-344.26844369 255.89743327 -329.16902947 230.5452762 -312.5625 206.375 C-312.07813477 205.66778809 -311.59376953 204.96057617 -311.09472656 204.23193359 C-300.66160558 189.05616811 -289.3960032 174.48496568 -277.5625 160.375 C-277.1279248 159.85550781 -276.69334961 159.33601562 -276.24560547 158.80078125 C-264.08585216 144.30537543 -251.04254964 130.76452931 -237.6875 117.375 C-236.80564529 116.48912704 -236.80564529 116.48912704 -235.90597534 115.58535767 C-229.63723262 109.29496956 -223.36779969 103.09137354 -216.5625 97.375 C-215.51775879 96.47450377 -214.4734662 95.57348671 -213.4296875 94.671875 C-154.19449727 44.25236583 -79.93898772 -0.19479411 0 0 Z " fill="#FF2A77" transform="translate(394.5625,-0.375)"/>
<path d="M0 0 C9.7242917 7.91128816 13.14014445 17.54352678 14.5859375 29.75390625 C17.46126562 71.53329519 -7.54562073 111.91554093 -33.71875 142.375 C-56.39336876 168.19839341 -86.56187775 193.80192554 -121.84375 198.4375 C-134.18044401 199.07690182 -144.81624379 196.60532421 -154.15625 188.5 C-164.87668202 175.19791292 -165.53281288 159.69261819 -163.9453125 143.32519531 C-159.83966695 110.89992646 -141.77618378 80.17232355 -121.15625 55.5 C-120.6715625 54.91379883 -120.186875 54.32759766 -119.6875 53.72363281 C-109.82974878 41.83143685 -99.40693291 30.9854369 -87.15625 21.5 C-86.62612305 21.07750977 -86.09599609 20.65501953 -85.54980469 20.21972656 C-64.00949802 3.10499654 -26.68645844 -18.37428286 0 0 Z " fill="#FF2A77" transform="translate(773.15625,540.5)"/>
<path d="M0 0 C7.09887552 4.79174098 11.15823544 10.66344147 13 19 C14.81929625 39.31087424 9.14822889 57.14412488 -3.5625 73 C-5.02212881 74.68380389 -6.49966695 76.35236152 -8 78 C-8.87785156 78.98226562 -8.87785156 78.98226562 -9.7734375 79.984375 C-21.04151547 91.94017603 -36.03520075 99.85325688 -52.4375 100.375 C-58.85923735 100.28554296 -63.55858985 99.40979195 -69 96 C-69.9075 95.443125 -70.815 94.88625 -71.75 94.3125 C-78.46671333 87.4092113 -80.98158154 78.90397033 -81.375 69.5 C-80.96816033 51.50864579 -73.08818635 34.14030627 -61 21 C-60.26265625 20.17113281 -59.5253125 19.34226562 -58.765625 18.48828125 C-49.69323269 8.80809795 -38.82379516 1.65152133 -26 -2 C-25.36707031 -2.19078125 -24.73414063 -2.3815625 -24.08203125 -2.578125 C-16.18985409 -4.17729035 -7.17872786 -3.83409329 0 0 Z " fill="#FF2A77" transform="translate(819,670)"/>
</svg>
